<svg width="25" height="24" viewBox="0 0 25 24" fill="none" xmlns="http://www.w3.org/2000/svg">
<path d="M12.5 0C17.3174 0 21.4736 2.5995 23.5516 6.40806C24.4647 8.10076 25 9.97481 25 12V24H12.5C10.3904 24 8.43829 23.5164 6.67506 22.6398C2.70781 20.6146 0 16.6247 0 12C0 5.38035 5.60453 0 12.5 0ZM7.52519 21.0982C9.00504 21.8539 10.7053 22.2771 12.5 22.2771H23.2053V12C23.2053 10.2771 22.7645 8.64484 21.9773 7.22418C20.1826 3.9597 16.6247 1.72292 12.5 1.72292C6.5806 1.72292 1.79471 6.31738 1.79471 12C1.79471 15.9597 4.12468 19.3753 7.52519 21.0982Z" fill="#212121"/>
<path d="M13.7497 19.2001H11.25V9.6001H13.75L13.7497 19.2001Z" fill="#212121"/>
<circle cx="12.5" cy="6.5" r="1.5" fill="#212121"/>
</svg>
